<?xml version="1.0" standalone="no"?>
<!DOCTYPE svg PUBLIC "-//W3C//DTD SVG 1.1//EN" "http://www.w3.org/Graphics/SVG/1.1/DTD/svg11.dtd" >
<svg xmlns="http://www.w3.org/2000/svg">
<metadata>Generated by IcoMoon</metadata>
<defs>
<font id="porto-icon" horiz-adv-x="1024">
<font-face units-per-em="1024" ascent="960" descent="-64" />
<missing-glyph horiz-adv-x="1024" />
<glyph unicode="&#x20;" horiz-adv-x="512" d="" />
<glyph unicode="&#xe900;" glyph-name="porto-arrow" d="M743.424 331.264v-49.152l247.808 138.24-247.808 156.672v-50.176l133.12-83.968h-823.296c-11.264 0-21.504-9.216-21.504-21.504v0c0-11.264 9.216-21.504 21.504-21.504h815.104l-124.928-68.608z" />
<glyph unicode="&#xe901;" glyph-name="porto-circle" d="M512-54.784c-271.36 0-492.544 221.184-492.544 492.544s221.184 492.544 492.544 492.544 492.544-221.184 492.544-492.544c0-271.36-221.184-492.544-492.544-492.544zM512 889.344c-248.832 0-451.584-202.752-451.584-451.584s202.752-451.584 451.584-451.584 451.584 202.752 451.584 451.584c0 248.832-202.752 451.584-451.584 451.584z" />
<glyph unicode="&#xe902;" glyph-name="porto-close" d="M897.024 747.008l-80.896 81.92-304.128-304.128-304.128 304.128-80.896-81.92 304.128-304.128-304.128-303.104 80.896-81.92 304.128 304.128 304.128-304.128 80.896 81.92-304.128 303.104z" />
<glyph unicode="&#xe903;" glyph-name="porto-comment" d="M994.304 343.552c0 36.864-20.48 69.632-55.296 98.304-22.528-125.952-212.992-223.232-445.44-223.232-6.144 0-12.288 0-18.432 1.024 54.272-30.72 129.024-48.128 209.92-48.128 43.008 0 84.992 5.12 121.856 14.336 69.632-43.008 130.048-28.672 130.048-28.672-13.312 15.36-27.648 37.888-38.912 62.464 59.392 30.72 96.256 74.752 96.256 123.904zM447.488 711.168c-236.544 0-428.032-96.256-428.032-216.064 0-83.968 95.232-156.672 234.496-192.512-10.24-25.6-23.552-56.32-34.816-70.656 0 0 71.68 8.192 141.312 51.2 27.648-3.072 57.344-4.096 87.040-4.096 236.544 0 428.032 96.256 428.032 216.064-1.024 119.808-192.512 216.064-428.032 216.064zM337.92 506.368c11.264 0 19.456-9.216 19.456-19.456s-9.216-19.456-19.456-19.456-19.456 9.216-19.456 19.456 9.216 19.456 19.456 19.456zM447.488 466.432c-11.264 0-19.456 9.216-19.456 19.456s9.216 19.456 19.456 19.456c11.264 0 19.456-9.216 19.456-19.456s-9.216-19.456-19.456-19.456zM556.032 465.408c-11.264 0-19.456 9.216-19.456 19.456 0 11.264 9.216 19.456 19.456 19.456 11.264 0 19.456-9.216 19.456-19.456s-9.216-19.456-19.456-19.456z" />
<glyph unicode="&#xe904;" glyph-name="porto-cycle" d="M819.2 549.376c-14.336 0-28.672-2.048-43.008-6.144l-73.728 82.944 23.552 63.488h60.416v28.672l-154.624-1.024v-28.672h63.488l-16.384-44.032h-380.928l12.288 62.464 2.048 28.672h-75.776c-2.048 0-14.336 0-25.6-10.24-9.216-9.216-14.336-22.528-14.336-39.936 0-19.456 8.192-30.72 14.336-36.864 11.264-10.24 24.576-11.264 30.72-11.264 2.048 0 3.072 0 4.096 0l-3.072 28.672c0 0-8.192-1.024-12.288 4.096-3.072 3.072-5.12 8.192-5.12 15.36 0 15.36 5.12 20.48 9.216 21.504h45.056l-31.744-160.768c-9.216 1.024-17.408 2.048-27.648 2.048-93.184 0-168.96-75.776-168.96-168.96s75.776-168.96 168.96-168.96 168.96 75.776 168.96 168.96c0 73.728-48.128 137.216-113.664 159.744l15.36 78.848 228.352-277.504c-5.12-7.168-8.192-16.384-8.192-26.624 0-25.6 21.504-47.104 47.104-47.104 20.48 0 38.912 13.312 45.056 32.768h64.512c28.672-53.248 84.992-90.112 149.504-90.112 93.184 0 168.96 75.776 168.96 168.96 2.048 94.208-73.728 171.008-166.912 171.008zM362.496 379.392c0-77.824-62.464-140.288-140.288-140.288s-140.288 63.488-140.288 140.288c0 77.824 62.464 140.288 140.288 140.288s140.288-62.464 140.288-140.288zM665.6 615.936l-101.376-254.976c-1.024 0-3.072 0-4.096 0-6.144 0-11.264-1.024-16.384-3.072l-211.968 258.048h333.824zM605.184 329.216c-3.072 8.192-7.168 15.36-13.312 20.48l98.304 246.784 57.344-64.512c-57.344-27.648-97.28-84.992-97.28-152.576 0-17.408 3.072-34.816 7.168-50.176h-52.224zM819.2 239.104c-77.824 0-140.288 62.464-140.288 140.288s62.464 140.288 140.288 140.288 140.288-62.464 140.288-140.288c0-76.8-63.488-140.288-140.288-140.288z" />
<glyph unicode="&#xe905;" glyph-name="porto-envelop" d="M908.288 747.008h-780.288c-44.032 0-80.896-43.008-80.896-95.232v-435.2c0-53.248 35.84-95.232 80.896-95.232h781.312c44.032 0 80.896 43.008 80.896 95.232v435.2c-1.024 52.224-36.864 95.232-81.92 95.232zM870.4 573.952l-220.16-173.056 151.552-120.832c9.216-8.192 13.312-24.576 8.192-38.912-4.096-9.216-10.24-14.336-17.408-14.336-3.072 0-6.144 1.024-9.216 3.072l-174.080 139.264-94.208-73.728c-6.144-5.12-14.336-5.12-20.48 1.024l-82.944 74.752-203.776-142.336c-10.24-7.168-21.504-1.024-26.624 13.312-1.024 4.096-2.048 8.192-2.048 12.288 0 10.24 4.096 20.48 11.264 25.6l181.248 125.952-186.368 166.912c-11.264 9.216-14.336 31.744-9.216 49.152 4.096 12.288 11.264 18.432 19.456 18.432 3.072 0 7.168-1.024 10.24-4.096l257.024-230.4 32.768-29.696c6.144-6.144 14.336-6.144 20.48-1.024l41.984 32.768 40.96 32.768 251.904 197.632c11.264 8.192 24.576 1.024 29.696-16.384 1.024-5.12 2.048-10.24 2.048-15.36 0-13.312-4.096-26.624-12.288-32.768z" />
<glyph unicode="&#xe906;" glyph-name="porto-facebook" d="M512 938.496c-266.24 0-482.304-216.064-482.304-482.304 0-240.64 176.128-440.32 406.528-476.16v382.976h-91.136v107.52h91.136v35.84c0 101.376 81.92 183.296 183.296 183.296l60.416-1.024v-107.52h-61.44c-40.96 0-73.728-32.768-73.728-73.728v-35.84h130.048l-18.432-108.544h-111.616v-388.096c250.88 16.384 450.56 226.304 450.56 481.28-1.024 266.24-217.088 482.304-483.328 482.304z" />
<glyph unicode="&#xe907;" glyph-name="porto-heart" d="M813.056 885.248c-89.088 31.744-191.488 15.36-284.672-35.84-93.184 51.2-194.56 66.56-284.672 35.84-178.176-63.488-238.592-290.816-135.168-508.928 71.68-150.528 279.552-337.92 419.84-417.792 141.312 79.872 348.16 267.264 419.84 417.792 104.448 218.112 44.032 445.44-135.168 508.928z" />
<glyph unicode="&#xe908;" glyph-name="porto-home" d="M951.296 522.752l-197.632 190.464-185.344 179.2c-12.288 12.288-32.768 12.288-45.056 0l-185.344-179.2-198.656-190.464c-6.144-6.144-10.24-14.336-10.24-23.552v-427.008c0-18.432 14.336-32.768 32.768-32.768h284.672c0 3.072-1.024 6.144-1.024 9.216v281.6c0 32.768 26.624 58.368 58.368 58.368h80.896c32.768 0 58.368-26.624 58.368-58.368v-281.6c0-3.072 0-6.144-1.024-9.216h284.672c18.432 0 32.768 14.336 32.768 32.768v427.008c2.048 9.216-2.048 17.408-8.192 23.552z" />
<glyph unicode="&#xe909;" glyph-name="porto-laptop" d="M572.416 236.032c-5.12-10.24-15.36-17.408-26.624-17.408h-53.248c-11.264 0-21.504 7.168-26.624 17.408h-429.056c0-66.56 48.128-119.808 106.496-119.808h749.568c59.392 0 106.496 53.248 106.496 119.808h-427.008zM929.792 779.776h-806.912c-26.624 0-49.152-24.576-49.152-54.272v-417.792c0-29.696 21.504-54.272 49.152-54.272h806.912c26.624 0 49.152 24.576 49.152 54.272v416.768c-1.024 30.72-22.528 55.296-49.152 55.296zM923.648 323.072h-783.36v385.024h782.336v-385.024z" />
<glyph unicode="&#xe90a;" glyph-name="porto-linkedin" d="M512 930.304c-261.12 0-473.088-211.968-473.088-473.088s211.968-473.088 473.088-473.088 473.088 211.968 473.088 473.088-211.968 473.088-473.088 473.088zM377.856 267.776h-83.968v301.056h83.968v-301.056zM370.688 606.72c-9.216-9.216-21.504-14.336-34.816-14.336s-25.6 5.12-34.816 14.336c-9.216 9.216-14.336 21.504-14.336 34.816s5.12 25.6 14.336 34.816c9.216 9.216 21.504 14.336 34.816 14.336s25.6-5.12 34.816-14.336c9.216-9.216 14.336-21.504 14.336-34.816 0-14.336-5.12-25.6-14.336-34.816zM737.28 267.776h-83.968v169.984c0 46.080-17.408 69.632-51.2 69.632-16.384 0-31.744-6.144-44.032-18.432s-18.432-29.696-18.432-53.248v-166.912h-83.968v300.032h83.968v-33.792c25.6 25.6 53.248 38.912 84.992 38.912s58.368-11.264 79.872-33.792c21.504-22.528 31.744-52.224 31.744-89.088v-183.296z" />
<glyph unicode="&#xe90b;" glyph-name="porto-listen" d="M670.72 477.696c-38.912-32.768-95.232-54.272-158.72-54.272-62.464 0-118.784 20.48-158.72 54.272-128-6.144-228.352-86.016-228.352-184.32v-222.208c0-35.84 37.888-64.512 84.992-64.512h604.16c47.104 0 84.992 28.672 84.992 64.512v222.208c0 98.304-101.376 179.2-228.352 184.32zM726.016 666.112c0-117.632-95.36-212.992-212.992-212.992s-212.992 95.36-212.992 212.992c0 117.632 95.36 212.992 212.992 212.992s212.992-95.36 212.992-212.992zM761.856 588.288l-28.672 3.072 9.216 102.4 28.672-3.072c15.36-1.024 26.624-15.36 25.6-30.72l-4.096-46.080c-1.024-16.384-14.336-27.648-30.72-25.6zM263.168 585.216l28.672 3.072-11.264 102.4-28.672-3.072c-15.36-2.048-26.624-15.36-24.576-31.744l5.12-46.080c1.024-15.36 14.336-26.624 30.72-24.576zM513.024 911.872c135.168 0 245.76-110.592 245.76-245.76h18.432c0 145.408-118.784 264.192-264.192 264.192s-264.192-118.784-264.192-264.192h18.432c0 135.168 110.592 245.76 245.76 245.76z" />
<glyph unicode="&#xe90c;" glyph-name="porto-loader" d="M571.392 743.936l22.528 17.408c30.72 23.552 26.624 69.632-6.144 89.088l-24.576 12.288-80.896 46.080c-9.216 5.12-19.456 7.168-29.696 7.168l-76.8-5.12c-29.696-2.048-51.2-27.648-49.152-57.344l9.216-132.096c2.048-29.696 27.648-51.2 57.344-49.152l76.8 5.12c10.24 1.024 20.48 4.096 28.672 11.264l72.704 55.296zM845.824 512.512c-7.168 0-13.312 1.024-20.48 4.096l-112.64 44.032c-10.24 4.096-19.456 11.264-25.6 19.456l-44.032 63.488c-8.192 12.288-12.288 26.624-9.216 41.984s10.24 27.648 22.528 35.84l108.544 76.8c25.6 17.408 60.416 11.264 77.824-13.312l44.032-63.488c6.144-9.216 10.24-19.456 10.24-30.72l5.12-119.808c1.024-18.432-8.192-36.864-23.552-47.104-10.24-7.168-20.48-11.264-32.768-11.264zM801.792 531.968l25.6-10.24c16.384-6.144 33.792-4.096 48.128 6.144s21.504 25.6 21.504 43.008l-3.072 120.832c0 10.24-3.072 19.456-9.216 27.648l-45.056 62.464c-16.384 22.528-48.128 28.672-70.656 12.288l-108.544-76.8c-11.264-8.192-18.432-19.456-20.48-32.768s1.024-26.624 8.192-37.888l44.032-63.488c6.144-8.192 13.312-14.336 22.528-18.432l87.040-32.768zM736.256 233.984l4.096-27.648c5.12-37.888 47.104-58.368 79.872-38.912l24.576 14.336 79.872 47.104c9.216 5.12 16.384 13.312 20.48 22.528l33.792 69.632c13.312 26.624 2.048 58.368-24.576 71.68l-119.808 58.368c-26.624 13.312-58.368 2.048-71.68-24.576l-32.768-70.656c-4.096-9.216-6.144-19.456-5.12-30.72l11.264-91.136zM564.224-27.136c-9.216 0-17.408 2.048-25.6 6.144l-106.496 55.296c-16.384 9.216-27.648 24.576-29.696 44.032-2.048 18.432 5.12 36.864 20.48 49.152l93.184 76.8c8.192 7.168 18.432 11.264 29.696 12.288l76.8 8.192c14.336 1.024 29.696-3.072 40.96-12.288s18.432-22.528 20.48-37.888l12.288-132.096c3.072-30.72-19.456-58.368-50.176-61.44l-76.8-8.192c-1.024 0-3.072 0-5.12 0zM627.712 219.648c-2.048 0-3.072 0-5.12 0l-76.8-8.192c-10.24-1.024-19.456-5.12-26.624-11.264l-93.184-76.8c-13.312-11.264-20.48-27.648-18.432-44.032 2.048-17.408 12.288-31.744 26.624-39.936l106.496-55.296c9.216-5.12 18.432-6.144 28.672-5.12l76.8 8.192c13.312 1.024 25.6 8.192 33.792 18.432s12.288 23.552 11.264 36.864l-13.312 132.096c-1.024 13.312-8.192 25.6-18.432 33.792-9.216 7.168-20.48 11.264-31.744 11.264zM214.016 342.528l-26.624 9.216c-35.84 12.288-72.704-16.384-70.656-54.272l2.048-27.648 7.168-92.16c1.024-10.24 5.12-20.48 11.264-28.672l47.104-60.416c18.432-23.552 51.2-27.648 74.752-9.216l104.448 81.92c23.552 18.432 27.648 51.2 9.216 74.752l-46.080 58.368c-6.144 8.192-15.36 14.336-24.576 17.408l-88.064 30.72zM203.776 413.184c-6.144 0-13.312 1.024-19.456 3.072l-124.928 46.080c-28.672 10.24-44.032 43.008-32.768 71.68l26.624 72.704c4.096 10.24 10.24 19.456 19.456 25.6l97.28 71.68c15.36 11.264 34.816 14.336 52.224 7.168 17.408-6.144 30.72-21.504 34.816-39.936l27.648-116.736c2.048-10.24 2.048-21.504-2.048-31.744l-26.624-72.704c-5.12-14.336-15.36-25.6-28.672-31.744-8.192-3.072-16.384-5.12-23.552-5.12zM201.728 709.12c-10.24 0-21.504-3.072-29.696-10.24l-97.28-71.68c-7.168-5.12-13.312-13.312-17.408-22.528l-26.624-72.704c-9.216-26.624 4.096-55.296 29.696-65.536l124.928-46.080c12.288-5.12 26.624-4.096 38.912 2.048s21.504 15.36 26.624 28.672l26.624 72.704c3.072 9.216 4.096 19.456 2.048 28.672l-27.648 116.736c-4.096 16.384-15.36 29.696-31.744 35.84-6.144 3.072-12.288 4.096-18.432 4.096z" />
<glyph unicode="&#xe90d;" glyph-name="porto-logo" d="M835.584 420.352l57.344 20.48v-88.064l84.992-82.944c88.064 216.064 5.12 468.992-203.776 589.824-226.304 131.072-573.44 120.832-706.56-107.52-67.584-117.76-67.584-278.528-22.528-423.936l37.888 43.008 27.648 45.056 34.816 10.24 39.936 65.536 88.064 39.936v-107.52l48.128-65.536-55.296 21.504 2.048-45.056 34.816-7.168 82.944-98.304-115.712 70.656 193.536-245.76-277.504 177.152 79.872-137.216-153.6 119.808-7.168-20.48c45.056-79.872 107.52-148.48 180.224-190.464 228.352-130.048 534.528-22.528 665.6 205.824 0 0 0 2.048 2.048 2.048l-313.344 354.304 195.584-145.408zM675.84 392.704l-57.344 25.6 2.048-45.056 34.816-7.168 82.944-98.304-115.712 70.656 193.536-245.76-326.656 266.24-24.576-3.072-171.008 162.816 115.712-60.416 70.656-2.048 20.48 5.12 39.936 65.536 88.064 39.936v-105.472l47.104-68.608z" />
<glyph unicode="&#xe90e;" glyph-name="porto-map" d="M819.2 265.728c64.512 68.608 104.448 159.744 104.448 261.12 0 210.944-173.056 381.952-385.024 381.952s-386.048-171.008-386.048-381.952c0-101.376 39.936-192.512 104.448-261.12v0 0c6.144-6.144 12.288-12.288 18.432-18.432l263.168-261.12 263.168 261.12c5.12 6.144 11.264 12.288 17.408 18.432v0 0z" />
<glyph unicode="&#xe90f;" glyph-name="porto-mobile" d="M717.824 930.304h-366.592c-51.2 0-93.184-41.984-93.184-93.184v-782.336c0-51.2 41.984-93.184 93.184-93.184h367.616c51.2 0 93.184 41.984 93.184 93.184v782.336c-1.024 51.2-41.984 93.184-94.208 93.184zM499.712 861.696h70.656c6.144 0 11.264-5.12 11.264-11.264s-5.12-11.264-11.264-11.264h-70.656c-6.144 0-11.264 5.12-11.264 11.264-1.024 6.144 4.096 11.264 11.264 11.264zM534.528 34.304c-25.6 0-46.080 20.48-46.080 46.080s20.48 46.080 46.080 46.080c25.6 0 46.080-20.48 46.080-46.080s-20.48-46.080-46.080-46.080zM705.536 224.768h-325.632v542.72h326.656v-542.72z" />
<glyph unicode="&#xe910;" glyph-name="porto-pen" d="M387.072 714.24h249.856v-465.92h-249.856v465.92zM636.928 732.672h-249.856v47.104c0 45.056 36.864 81.92 81.92 81.92h84.992c45.056 0 81.92-36.864 81.92-81.92v-47.104zM512-35.328l124.928 262.144h-249.856l62.464-131.072z" />
<glyph unicode="&#xe911;" glyph-name="porto-search" d="M921.6 74.24l-101.376 101.376c68.608 79.872 107.52 186.368 98.304 302.080-16.384 204.8-186.368 368.64-392.192 378.88-243.712 12.288-443.392-188.416-432.128-432.128 9.216-200.704 165.888-368.64 366.592-391.168 111.616-12.288 214.016 20.48 294.912 80.896l103.424-103.424c12.288-12.288 31.744-12.288 44.032 0l19.456 19.456c11.264 12.288 11.264 32.768-1.024 44.032zM512 127.488c-175.104 0-317.44 142.336-317.44 317.44s142.336 317.44 317.44 317.44 317.44-142.336 317.44-317.44-142.336-317.44-317.44-317.44z" />
<glyph unicode="&#xe912;" d="M483.328 650.752h-123.904c6.144 71.68 22.528 151.552 62.464 192.512 17.408 17.408 37.888 26.624 61.44 26.624 0 0 0 0 0 0v32.768c0 0 0 0 0 0-33.792 0-62.464-12.288-87.040-36.864-47.104-48.128-65.536-137.216-71.68-215.040h-125.952c-17.408 0-31.744-13.312-33.792-29.696l-73.728-571.392c-3.072-20.48 13.312-38.912 33.792-38.912h358.4v640zM340.992 473.6c-15.36 0-26.624 12.288-26.624 26.624 0 8.192 3.072 14.336 8.192 19.456 0-1.024 0-3.072 0-4.096 0-9.216 9.216-16.384 18.432-15.36v0c9.216 1.024 16.384 8.192 15.36 16.384 0 1.024 0 3.072 0 5.12 6.144-5.12 11.264-12.288 11.264-21.504 0-14.336-12.288-26.624-26.624-26.624z" />
<glyph unicode="&#xe913;" d="M483.328 10.752h358.4c20.48 0 36.864 18.432 33.792 38.912l-73.728 570.368c-2.048 17.408-16.384 29.696-33.792 29.696h-124.928c-7.168 77.824-25.6 166.912-71.68 215.040-23.552 24.576-53.248 36.864-87.040 36.864 0 0 0 0 0 0v-32.768c0 0 0 0 0 0 24.576 0 44.032-9.216 61.44-26.624 39.936-40.96 56.32-120.832 62.464-192.512h-124.928v-638.976zM600.064 501.248c0 9.216 4.096 16.384 11.264 21.504 0-2.048 0-3.072 0-5.12 0-9.216 6.144-16.384 15.36-16.384v0c9.216-1.024 17.408 6.144 18.432 15.36 0 1.024 0 3.072 0 4.096 5.12-5.12 8.192-12.288 8.192-19.456 0-15.36-12.288-26.624-26.624-26.624-14.336-1.024-26.624 11.264-26.624 26.624z" />
<glyph unicode="&#xe914;" glyph-name="porto-star" d="M529.408 891.392l133.12-269.312c3.072-6.144 8.192-10.24 14.336-10.24l296.96-43.008c16.384-2.048 22.528-22.528 11.264-33.792l-215.040-209.92c-5.12-4.096-7.168-11.264-5.12-17.408l51.2-295.936c3.072-16.384-14.336-28.672-28.672-20.48l-266.24 139.264c-6.144 3.072-12.288 3.072-18.432 0l-266.24-139.264c-14.336-7.168-30.72 5.12-28.672 20.48l51.2 295.936c1.024 6.144-1.024 13.312-5.12 17.408l-215.040 209.92c-11.264 11.264-5.12 30.72 11.264 33.792l296.96 43.008c6.144 1.024 12.288 5.12 14.336 10.24l133.12 269.312c7.168 15.36 27.648 15.36 34.816 0z" />
<glyph unicode="&#xe915;" glyph-name="porto-user" d="M669.696 470.528c-37.888-32.768-93.184-54.272-155.648-54.272-61.44 0-116.736 20.48-155.648 54.272-124.928-6.144-224.256-86.016-224.256-185.344v-222.208c0-35.84 36.864-64.512 82.944-64.512h592.896c46.080 0 82.944 28.672 82.944 64.512v222.208c1.024 99.328-98.304 179.2-223.232 185.344zM722.944 679.424c0-115.37-93.526-208.896-208.896-208.896s-208.896 93.526-208.896 208.896c0 115.37 93.526 208.896 208.896 208.896s208.896-93.526 208.896-208.896z" />
<glyph unicode="&#xe916;" glyph-name="porto-video" d="M512 930.304c-266.24 0-482.304-216.064-482.304-482.304s216.064-482.304 482.304-482.304 482.304 216.064 482.304 482.304c0 266.24-216.064 482.304-482.304 482.304zM772.096 409.088l-193.536-101.376-198.656-103.424c-15.36-8.192-32.768 3.072-32.768 20.48l1.024 206.848v205.824c0 17.408 18.432 27.648 32.768 19.456l390.144-207.872c16.384-9.216 16.384-31.744 1.024-39.936z" />
<glyph unicode="&#xe917;" glyph-name="porto-wine" d="M718.848 55.808h-171.008v446.464c134.144 26.624 237.568 200.704 237.568 410.624h-546.816c0-209.92 103.424-384 237.568-410.624v-446.464h-159.744v-72.704h402.432v72.704z" />
</font>
</defs>
</svg>
